<svg width="400" height="160" viewBox="0 0 400 160" fill="none" xmlns="http://www.w3.org/2000/svg">
<circle cx="79.5" cy="118" r="12" transform="rotate(90 79.5 118)" fill="#5B34EA"/>
<circle cx="79.5" cy="42" r="12" transform="rotate(90 79.5 42)" fill="#5B34EA"/>
<path d="M34.5 60C34.5 63.3062 35.8371 66.3001 38 68.4705C40.1629 70.6409 40.1629 89.3591 38 91.5295C35.8371 93.6999 34.5 96.6938 34.5 100C34.5 106.627 39.8726 112 46.5 112C53.1274 112 58.5 106.627 58.5 100C58.5 96.2104 56.7434 92.8311 54 90.6319C51.2566 88.4328 47.2593 70.7358 54 72.1768C60.7407 73.6179 66.831 78.2029 67.7714 82.5494C68.9402 87.9522 73.7474 92 79.5 92C85.3604 92 90.2396 87.799 91.2905 82.2442C92.146 77.7222 98.2882 73.2927 105 72.0073C111.712 70.722 107.743 88.4328 105 90.6319C102.257 92.8311 100.5 96.2104 100.5 100C100.5 106.627 105.873 112 112.5 112C119.127 112 124.5 106.627 124.5 100C124.5 96.6938 123.163 93.6999 121 91.5295C118.837 89.3591 118.837 70.6409 121 68.4705C123.163 66.3001 124.5 63.3062 124.5 60C124.5 53.3726 119.127 48 112.5 48C106.418 48 101.394 52.5239 100.607 58.3901C99.8205 64.2563 90.9518 68.9473 83.042 68.5313C80.4006 68.3924 78.2936 68.4832 75.6588 68.628C67.9005 69.0542 59.0855 64.6862 58.4282 58.6799C57.771 52.6736 52.6813 48 46.5 48C39.8726 48 34.5 53.3726 34.5 60Z" fill="#5B34EA"/>
<path d="M154.84 123V42.36H168.504L195.16 95.896L221.816 42.36H235.48V123H221.256V74.84L197.848 123H192.472L169.064 74.84V123H154.84Z" fill="#5B34EA"/>
<path d="M250.319 54.12V40.68H265.551V54.12H250.319ZM250.319 123V62.52H265.551V123H250.319Z" fill="#5B34EA"/>
<path d="M280.34 123V62.52H293.78V77.304L292.324 75.4C293.108 73.3093 294.153 71.4053 295.46 69.688C296.767 67.9707 298.372 66.552 300.276 65.432C301.732 64.536 303.319 63.8453 305.036 63.36C306.753 62.8373 308.527 62.52 310.356 62.408C312.185 62.2587 314.015 62.296 315.844 62.52V76.744C314.164 76.2213 312.204 76.0533 309.964 76.24C307.761 76.3893 305.764 76.8933 303.972 77.752C302.18 78.5733 300.668 79.6747 299.436 81.056C298.204 82.4 297.271 84.0053 296.636 85.872C296.001 87.7013 295.684 89.7733 295.684 92.088V123H280.34Z" fill="#5B34EA"/>
<path d="M347.008 124.792C342.267 124.792 338.403 123.989 335.416 122.384C332.43 120.779 330.096 118.744 328.416 116.28C326.774 113.816 325.598 111.259 324.888 108.608C324.179 105.92 323.75 103.475 323.6 101.272C323.451 99.0693 323.376 97.464 323.376 96.456V62.52H338.832V91.08C338.832 92.4613 338.907 94.2347 339.056 96.4C339.206 98.528 339.672 100.675 340.456 102.84C341.24 105.005 342.51 106.816 344.264 108.272C346.056 109.728 348.576 110.456 351.824 110.456C353.131 110.456 354.531 110.251 356.024 109.84C357.518 109.429 358.918 108.645 360.224 107.488C361.531 106.293 362.595 104.557 363.416 102.28C364.275 99.9653 364.704 96.9413 364.704 93.208L373.44 97.352C373.44 102.131 372.47 106.611 370.528 110.792C368.587 114.973 365.656 118.352 361.736 120.928C357.854 123.504 352.944 124.792 347.008 124.792ZM366.608 123V102.952H364.704V62.52H380.048V123H366.608Z" fill="#5B34EA"/>
</svg>
